<?xml version="1.0" encoding="UTF-8"?>
<svg width="30pt" height="30pt" version="1.1" viewBox="0 0 1200 1200" xmlns="http://www.w3.org/2000/svg">
 <path d="m773.75 597.88c-0.45312-8.7852-3.9609-17.137-9.918-23.613l-272.06-294.73h0.003906c-6.8281-7.3594-16.301-11.707-26.332-12.082-10.031-0.37891-19.801 3.2461-27.16 10.074-7.3594 6.8281-11.707 16.297-12.082 26.328-0.37891 10.035 3.2461 19.805 10.074 27.164l248.2 268.99-248.2 268.99v-0.003907c-6.8281 7.3594-10.453 17.129-10.074 27.164 0.375 10.031 4.7227 19.5 12.082 26.328 7.3594 6.8281 17.129 10.453 27.16 10.074 10.031-0.375 19.504-4.7227 26.332-12.082l272.06-294.73h-0.003906c6.957-7.5547 10.539-17.613 9.918-27.867z"/>
</svg>
